<?xml version="1.0" encoding="UTF-8"?>
<svg version="1.1" xmlns="http://www.w3.org/2000/svg" width="759" height="228">
<path d="M0 0 C250.47 0 500.94 0 759 0 C759 75.24 759 150.48 759 228 C508.53 228 258.06 228 0 228 C0 152.76 0 77.52 0 0 Z " fill="#FDFDFD" transform="translate(0,0)"/>
<path d="M0 0 C6.19644458 0.65805738 12.12848543 1.84616064 18.1875 3.28515625 C19.13061035 3.50570175 20.0737207 3.72624725 21.04541016 3.95347595 C24.03119402 4.65262657 27.01559991 5.3574686 30 6.0625 C32.0350676 6.54009146 34.07022303 7.01730882 36.10546875 7.49414062 C41.07133885 8.65843598 46.03598199 9.82783445 51 11 C49.76649176 19.39122686 47.47005258 27.12780119 44.6875 35.125 C43.87277543 37.51617028 43.06026998 39.90809782 42.25 42.30078125 C41.86070312 43.4501416 41.47140625 44.59950195 41.0703125 45.78369141 C38.84690073 52.46508433 36.91182256 59.22427592 35 66 C34.60485105 67.38040443 34.20901101 68.7606112 33.8125 70.140625 C32.86944117 73.42551315 31.93268664 76.71214931 31 80 C23.63726784 79.63789842 16.97705857 78.03059716 9.90966797 76.09033203 C-0.30021995 73.31631723 -10.64827519 71.17144639 -21 69 C-19.79999167 63.35500484 -18.45894554 57.78358353 -16.8125 52.25 C-16.60109375 51.53392578 -16.3896875 50.81785156 -16.171875 50.08007812 C-14.13575273 43.27942976 -11.87343772 36.55859399 -9.59814453 29.83496094 C-7.4342092 23.40599799 -5.44498624 16.94284044 -3.59765625 10.41601562 C-2.58195303 6.85032511 -1.45061294 3.41320693 0 0 Z " fill="#6CA9D9" transform="translate(686,20)"/>
<path d="M0 0 C17.16 0 34.32 0 52 0 C52 23.76 52 47.52 52 72 C34.84 72 17.68 72 0 72 C0 48.24 0 24.48 0 0 Z " fill="#A2A368" transform="translate(419,29)"/>
<path d="M0 0 C17.16 0 34.32 0 52 0 C52 23.43 52 46.86 52 71 C34.84 71 17.68 71 0 71 C0 47.57 0 24.14 0 0 Z " fill="#465146" transform="translate(602,29)"/>
<path d="M0 0 C17.16 0 34.32 0 52 0 C52 23.43 52 46.86 52 71 C34.84 71 17.68 71 0 71 C0 47.57 0 24.14 0 0 Z " fill="#747172" transform="translate(540,29)"/>
<path d="M0 0 C16.83 0 33.66 0 51 0 C51 23.43 51 46.86 51 71 C34.17 71 17.34 71 0 71 C0 47.57 0 24.14 0 0 Z " fill="#708572" transform="translate(480,29)"/>
<path d="M0 0 C16.83 0 33.66 0 51 0 C51 23.43 51 46.86 51 71 C34.17 71 17.34 71 0 71 C0 47.57 0 24.14 0 0 Z " fill="#5E3C23" transform="translate(359,29)"/>
<path d="M0 0 C6.26958116 4.40472399 9.84485392 10.72997389 12 18 C13.31104452 27.7766463 11.51356285 35.89833498 5.6875 43.8125 C0.76487928 49.72376421 -4.30741088 52.92569014 -12 54 C-21.73749498 54.82106097 -29.22769296 53.63460103 -36.8125 47.25 C-43.73434843 40.67847199 -46.11233227 34.45942482 -46.4375 25 C-46.49640559 16.21771166 -44.01583549 9.21888335 -37.9140625 2.80859375 C-26.19358737 -7.0407178 -13.16144974 -7.30571998 0 0 Z " fill="#FDFDFB" transform="translate(620,144)"/>
<path d="M0 0 C6.31858767 3.24079307 11.49813137 8.09943842 14.7265625 14.46875 C17.01097503 22.15364009 17.00616519 31.8966964 14.01171875 39.3828125 C12.8828125 41.40234375 12.8828125 41.40234375 11.57421875 43.3203125 C11.11144531 44.02542969 10.64867187 44.73054688 10.171875 45.45703125 C4.99413645 52.30582479 -2.10077418 55.5595972 -10.515625 56.76171875 C-18.48644073 57.0797307 -25.46055799 55.55598872 -31.71875 50.44921875 C-37.33918258 45.03353781 -41.10945039 40.15044145 -41.62890625 32.21875 C-41.76796823 21.76592433 -41.17857514 12.96425901 -33.6328125 5.1484375 C-23.18481758 -3.50583086 -12.43633864 -5.07388424 0 0 Z " fill="#FDFDFB" transform="translate(156.42578125,141.6796875)"/>
<path d="M0 0 C4.37487331 -0.08738991 8.74952078 -0.140524 13.125 -0.1875 C14.3625 -0.21263672 15.6 -0.23777344 16.875 -0.26367188 C18.07382813 -0.27333984 19.27265625 -0.28300781 20.5078125 -0.29296875 C21.60754395 -0.3086792 22.70727539 -0.32438965 23.84033203 -0.34057617 C28.9954301 0.21508461 32.17095075 2.20699637 35.875 5.75 C38.42368077 9.64798236 38.73485393 11.42757556 38 16 C35.21358251 21.93628073 30.438933 24.72269422 25 28 C25.49371094 28.40992187 25.98742187 28.81984375 26.49609375 29.2421875 C27.13675781 29.78101562 27.77742188 30.31984375 28.4375 30.875 C29.07558594 31.40867187 29.71367187 31.94234375 30.37109375 32.4921875 C33.22056349 35.12982616 33.26636568 37.42773075 33.4375 41.1875 C33.40463938 45.36627611 33.01122838 47.76844576 30.3125 51 C24.01012429 57.19857187 18.54070959 58.1571552 9.953125 58.09765625 C9.18192322 58.0962413 8.41072144 58.09482635 7.6161499 58.09336853 C5.16072662 58.08778534 2.70539558 58.07523595 0.25 58.0625 C-1.41796743 58.05748283 -3.08593629 58.0529203 -4.75390625 58.04882812 C-8.83597287 58.03782141 -12.91797081 58.02056836 -17 58 C-17 57.34 -17 56.68 -17 56 C-15.906875 55.79375 -14.81375 55.5875 -13.6875 55.375 C-9.89027827 54.3853643 -9.89027827 54.3853643 -8.4453125 51.515625 C-6.67386054 47.20668779 -5.40863135 42.86602672 -4.1875 38.375 C-2.60707898 32.66598792 -1.01208338 26.97007696 0.7578125 21.31640625 C1.17969849 19.96119873 1.17969849 19.96119873 1.61010742 18.57861328 C2.15187573 16.84923895 2.70123899 15.12222127 3.2590332 13.39794922 C3.50226318 12.61564941 3.74549316 11.83334961 3.99609375 11.02734375 C4.21450928 10.34406006 4.4329248 9.66077637 4.65795898 8.95678711 C5.05512615 6.68462808 4.70081342 5.17723425 4 3 C2.68 2.67 1.36 2.34 0 2 C0 1.34 0 0.68 0 0 Z " fill="#242422" transform="translate(196,34)"/>
<path d="M0 0 C1.65 0 3.3 0 5 0 C6.82842004 1.87758763 8.20828621 3.56120529 9.6875 5.6875 C10.57114432 6.89747899 11.45527153 8.10710545 12.33984375 9.31640625 C12.78440918 9.93531738 13.22897461 10.55422852 13.68701172 11.19189453 C15.64374829 13.88650052 17.70004549 16.50092315 19.75 19.125 C24.55746381 25.34016352 29.20311959 31.67347668 33.82714844 38.02587891 C38.0715812 43.83022086 42.49582777 49.36978471 47 55 C47.33 36.85 47.66 18.7 48 0 C49.98 0 51.96 0 54 0 C54 22.11 54 44.22 54 67 C49 67 49 67 47.33764648 65.6015625 C46.85368408 64.94929688 46.36972168 64.29703125 45.87109375 63.625 C45.31711914 62.89498779 44.76314453 62.16497559 44.19238281 61.4128418 C43.32371582 60.21848511 43.32371582 60.21848511 42.4375 59 C41.52049316 57.77953979 41.52049316 57.77953979 40.58496094 56.53442383 C38.70933685 54.03302511 36.85453878 51.51705196 35 49 C33.92518114 47.56490312 32.84847229 46.13121905 31.76953125 44.69921875 C29.77904898 42.05658326 27.79479907 39.40950993 25.81640625 36.7578125 C19.32996388 28.08099814 12.65072563 19.55093296 6 11 C5.67 29.48 5.34 47.96 5 67 C3.35 67 1.7 67 0 67 C0 44.89 0 22.78 0 0 Z " fill="#B3A782" transform="translate(662,135)"/>
<path d="M0 0 C7.0547945 4.76962566 11.63853483 11.50376091 13.82421875 19.71484375 C15.22846686 30.7252396 14.41806689 40.4631229 7.82421875 49.71484375 C2.33191267 56.59903562 -4.45868386 61.00000492 -13.17578125 62.71484375 C-24.18539706 63.5925334 -33.40242572 61.60819452 -42.17578125 54.71484375 C-49.59552771 47.7947945 -53.23369137 41.03454893 -53.74853516 30.91064453 C-53.96824736 20.36240543 -52.168482 12.56868862 -45.16015625 4.3515625 C-32.7319215 -7.87549578 -14.64373595 -8.64953165 0 0 Z M-43.83984375 10.53515625 C-48.95301366 18.87769663 -49.63911518 29.39817409 -47.7421875 38.8828125 C-44.71952745 47.0871755 -37.18562992 53.32920153 -29.55078125 56.96484375 C-19.67939611 59.15848489 -10.87082259 57.98828208 -2.17578125 52.71484375 C4.84872723 46.76493802 8.3297438 40.84310975 9.203125 31.78515625 C9.77692018 21.39540632 8.24327364 14.9022721 1.25390625 6.921875 C-4.59195499 1.2030977 -12.56317436 -1.39903835 -20.61328125 -1.91015625 C-29.78871029 -1.51636101 -38.25920621 3.32116138 -43.83984375 10.53515625 Z " fill="#AA9E76" transform="translate(163.17578125,140.28515625)"/>
<path d="M0 0 C8.09268789 4.43995717 15.96932239 11.45280669 18.63745117 20.51538086 C20.73094674 30.59806915 19.98021344 42.4873775 15.0625 51.5625 C10.09159714 59.08986719 2.39087273 63.8475376 -6.26953125 66.08984375 C-17.22609193 68.03090355 -26.02395827 66.10551417 -35.1875 59.875 C-39.48146439 56.43115382 -42.28522881 52.34650317 -44.9375 47.5625 C-45.27910156 46.97082031 -45.62070312 46.37914062 -45.97265625 45.76953125 C-49.56511452 38.20030522 -49.32692667 28.02088008 -46.87109375 20.140625 C-42.52660771 10.81240975 -36.55285251 4.05670108 -26.91796875 0.25390625 C-19.04069368 -2.49614836 -7.95307163 -3.15256894 0 0 Z M-36.9375 12.5625 C-43.10290432 20.99870138 -44.1395059 29.32759831 -42.9375 39.5625 C-42.2578895 42.3966204 -41.46285995 44.00207438 -39.9375 46.5625 C-39.36 47.573125 -38.7825 48.58375 -38.1875 49.625 C-33.26092028 56.05692352 -27.99154716 60.0235101 -19.9375 61.5625 C-9.92986138 62.6037572 -1.60809155 60.63977886 6.2734375 54.296875 C12.63776509 48.12709018 15.05266472 40.58751852 15.5625 31.875 C15.4028604 23.91297513 12.33640395 17.4450143 7.234375 11.39453125 C1.31871539 5.75541671 -5.79780226 2.43019806 -14 2.125 C-23.12488729 2.58124436 -30.60514284 5.90996748 -36.9375 12.5625 Z " fill="#AA9D76" transform="translate(616.9375,136.4375)"/>
<path d="M0 0 C14.52 0 29.04 0 44 0 C44 1.65 44 3.3 44 5 C31.46 5 18.92 5 6 5 C6 13.58 6 22.16 6 31 C17.22 31 28.44 31 40 31 C40 32.32 40 33.64 40 35 C28.45 35 16.9 35 5 35 C5 44.24 5 53.48 5 63 C18.53 63 32.06 63 46 63 C46 64.32 46 65.64 46 67 C30.82 67 15.64 67 0 67 C0 44.89 0 22.78 0 0 Z " fill="#B0A47E" transform="translate(330,135)"/>
<path d="M0 0 C1.69290307 1.18000373 3.33828614 2.42767304 4.97265625 3.6875 C4.31265625 5.0075 3.65265625 6.3275 2.97265625 7.6875 C0.96573026 6.68851675 -1.03637359 5.68282635 -3.02734375 4.65234375 C-3.68734375 4.31332031 -4.34734375 3.97429687 -5.02734375 3.625 C-5.68734375 3.28339844 -6.34734375 2.94179687 -7.02734375 2.58984375 C-14.06651499 -0.58603234 -21.71048587 -0.00446369 -28.82421875 2.64453125 C-36.76992032 6.40606019 -41.71030251 11.82247676 -44.77734375 20.0625 C-47.21924255 28.11271582 -46.40987207 36.00767155 -43.02734375 43.6875 C-38.42083149 50.20887617 -33.54956868 55.00015349 -25.77734375 57.375 C-15.12032368 58.58602501 -5.71023566 57.31391751 2.97265625 50.6875 C3.63265625 52.0075 4.29265625 53.3275 4.97265625 54.6875 C-1.79287195 61.09694777 -8.66520211 63.89238901 -18.02734375 64.1875 C-28.40781529 63.81676887 -35.24169262 60.46145587 -42.7578125 53.3359375 C-49.34745964 45.64612552 -52.41322015 36.93812862 -52.3046875 26.953125 C-51.50046318 17.48366679 -47.11303685 9.33004142 -40.14453125 2.96875 C-28.95583416 -5.98220767 -12.36288264 -8.00371593 0 0 Z " fill="#ACA17A" transform="translate(447.02734375,139.3125)"/>
<path d="M0 0 C3.1875 2.25 3.1875 2.25 5 4 C4.34 5.32 3.68 6.64 3 8 C1.03352348 7.03629628 -0.88928598 6.06726306 -2.76171875 4.9296875 C-10.66017694 0.60395989 -20.99974223 0.49324879 -29.62890625 2.66015625 C-31.67761843 3.58628641 -33.25160112 4.59040569 -35 6 C-35.62132813 6.48597656 -36.24265625 6.97195312 -36.8828125 7.47265625 C-43.50630553 13.33403188 -46.02841926 20.11099232 -46.62329102 28.85424805 C-46.88865947 37.46409227 -44.8447283 43.54644583 -39 50 C-33.17481161 55.63177393 -27.30646445 57.99584772 -19.1875 58.3125 C-12.70398936 58.17413239 -6.67483082 56.62815789 -1.125 53.25 C1 52 1 52 3.3125 52.3125 C3.869375 52.539375 4.42625 52.76625 5 53 C3.58218733 56.54453168 2.10283462 57.8573491 -1.25 59.625 C-1.99765625 60.02976562 -2.7453125 60.43453125 -3.515625 60.8515625 C-11.3610134 64.47820431 -19.3223271 65.4015013 -27.78515625 63.3125 C-37.52133769 59.70093347 -43.99513481 54.05865008 -49 45 C-49.34160156 44.38511719 -49.68320312 43.77023438 -50.03515625 43.13671875 C-53.70037686 35.17551864 -53.07343316 25.29412046 -50.4375 17.125 C-48.231067 11.82332353 -45.10514577 7.96078899 -41 4 C-39.6078125 2.6078125 -39.6078125 2.6078125 -38.1875 1.1875 C-26.96637991 -6.51326869 -11.87849014 -6.00005645 0 0 Z " fill="#A89C74" transform="translate(87,139)"/>
<path d="M0 0 C0.99 0 1.98 0 3 0 C2.6875 2.375 2.6875 2.375 2 5 C-1.71769452 7.47846301 -4.58068272 7.26100633 -8.875 7.1875 C-9.93654297 7.1865332 -9.93654297 7.1865332 -11.01953125 7.18554688 C-14.79733916 7.15388927 -18.3276513 6.90008547 -22 6 C-22.12455566 7.02254883 -22.24911133 8.04509766 -22.37744141 9.09863281 C-22.95618275 12.7254119 -23.80980845 15.9416685 -24.9609375 19.421875 C-25.35023437 20.61296875 -25.73953125 21.8040625 -26.140625 23.03125 C-26.54796875 24.2584375 -26.9553125 25.485625 -27.375 26.75 C-30.72148271 36.87995324 -30.72148271 36.87995324 -33.8515625 47.078125 C-34.09986816 47.9124707 -34.34817383 48.74681641 -34.60400391 49.60644531 C-35.05605325 52.33880768 -34.69442434 54.33734819 -34 57 C-32.02 57.33 -30.04 57.66 -28 58 C-28 58.66 -28 59.32 -28 60 C-36.25 60 -44.5 60 -53 60 C-53 59.34 -53 58.68 -53 58 C-51.906875 57.79375 -50.81375 57.5875 -49.6875 57.375 C-45.89696618 56.38594955 -45.89696618 56.38594955 -44.453125 53.546875 C-42.61895301 49.06991757 -41.32807336 44.53954182 -40.0625 39.875 C-38.43553074 34.01458518 -36.79840413 28.18898388 -34.8125 22.4375 C-32.83523596 16.70426159 -31.40438158 10.89840262 -30 5 C-40.395 5.495 -40.395 5.495 -51 6 C-51 8.64 -51 11.28 -51 14 C-52.65614657 14.38218767 -54.32457024 14.71395102 -56 15 C-57 14 -57 14 -57.375 10.6875 C-57 7 -57 7 -54.625 4.625 C-50.87883548 2.30594577 -49.01208979 1.87221517 -44.6171875 1.8671875 C-43.53179687 1.86589844 -42.44640625 1.86460938 -41.328125 1.86328125 C-39.61882813 1.86908203 -39.61882813 1.86908203 -37.875 1.875 C-36.75867188 1.87113281 -35.64234375 1.86726563 -34.4921875 1.86328125 C-28.54964246 1.87028897 -22.8807333 2.19015325 -17 3 C-14.37707056 3.13345629 -11.75113105 3.2182962 -9.125 3.25 C-7.82820313 3.27578125 -6.53140625 3.3015625 -5.1953125 3.328125 C-4.14085937 3.21984375 -3.08640625 3.1115625 -2 3 C-1.34 2.01 -0.68 1.02 0 0 Z " fill="#262624" transform="translate(101,32)"/>
<path d="M0 0 C-2.29059579 10.2474022 -5.59403351 20.07970924 -9 30 C-8.34 30 -7.68 30 -7 30 C-6.773125 29.401875 -6.54625 28.80375 -6.3125 28.1875 C-4.55823799 25.26372999 -3.13150836 24.36152537 0 23 C2.80712346 22.64978306 5.13925731 22.76551289 8 23 C8.66 23.66 9.32 24.32 10 25 C9.67711227 31.11468644 8.03962932 36.44863733 6 42.1875 C3.584514 48.97889141 3.584514 48.97889141 2 56 C5.98608812 54.70721467 7.62111287 53.39841019 10 50 C10.66 50 11.32 50 12 50 C10.68997074 53.93008778 9.33292638 56.47778544 6 59 C2.4375 59.9375 2.4375 59.9375 -1 60 C-2.72045898 58.76049805 -2.72045898 58.76049805 -4 57 C-4.65738343 50.6249095 -1.87827198 44.42452245 0.5625 38.6875 C1.21584195 37.13149774 1.86322083 35.57297495 2.50390625 34.01171875 C2.79080322 33.33584717 3.0777002 32.65997559 3.37329102 31.96362305 C4.20269955 29.70843052 4.20269955 29.70843052 4 26 C0.7177206 26 -1.36524683 26.43889963 -3.8515625 28.63671875 C-9.70078202 35.17042141 -12.525575 42.13289147 -15.1875 50.375 C-15.46013672 51.20644531 -15.73277344 52.03789063 -16.01367188 52.89453125 C-16.67991853 54.92833684 -17.34053602 56.96398501 -18 59 C-19.65 59 -21.3 59 -23 59 C-22.14139402 53.79187687 -21.04829718 48.86618559 -19.14453125 43.93359375 C-16.88080205 37.83715811 -15.13568786 31.64875471 -13.4375 25.375 C-11.47652571 18.17461548 -9.43344972 11.05626454 -7 4 C-8.65 4 -10.3 4 -12 4 C-11.67 3.01 -11.34 2.02 -11 1 C-3.375 0 -3.375 0 0 0 Z " fill="#2C2D2B" transform="translate(119,33)"/>
<path d="M0 0 C-0.62130229 6.30928097 -2.49989626 11.96207569 -4.5625 17.9375 C-4.89185547 18.90751953 -5.22121094 19.87753906 -5.56054688 20.87695312 C-6.3682448 23.25322384 -7.18150948 25.62742969 -8 28 C-7.67 28.33 -7.34 28.66 -7 29 C-6.5875 28.566875 -6.175 28.13375 -5.75 27.6875 C-2.54208088 24.59414942 -0.27777014 22.56713375 4.3125 22.5 C8 23 8 23 10 25 C9.69247365 33.14944827 6.95796455 41.17175767 3.91015625 48.6875 C2.83129683 51.42863638 2.40602153 54.09017902 2 57 C5.5863464 55.06143438 7.62660802 53.2775413 10 50 C10.66 50 11.32 50 12 50 C10.60870061 54.86954788 8.13332746 57.16340273 4 60 C1.25 60.4375 1.25 60.4375 -1 60 C-3.33722073 57.66277927 -3.30695737 57.16553733 -3.34375 53.98828125 C-3.22262246 48.58620922 -1.53363085 44.13809555 0.5 39.1875 C1.16205545 37.53747378 1.818536 35.88519703 2.46875 34.23046875 C2.76201172 33.51270264 3.05527344 32.79493652 3.35742188 32.05541992 C4.19892315 29.72262324 4.19892315 29.72262324 4 26 C-0.7805738 26.42181534 -3.89370019 28.46524504 -7 32 C-11.76486546 39.08367239 -13.74429584 47.40511087 -15.984375 55.53515625 C-17 59 -17 59 -18 60 C-19.66617115 60.04063832 -21.33388095 60.042721 -23 60 C-20.5625495 48.06842412 -17.06457957 36.60133396 -13.17407227 25.06347656 C-10.85555309 18.08774944 -9.07112734 11.27666027 -8 4 C-8.99 3.67 -9.98 3.34 -11 3 C-11 2.34 -11 1.68 -11 1 C-3.375 0 -3.375 0 0 0 Z " fill="#282826" transform="translate(320,33)"/>
<path d="M0 0 C17.16 0 34.32 0 52 0 C52 1.65 52 3.3 52 5 C44.08 5 36.16 5 28 5 C28 25.46 28 45.92 28 67 C26.35 67 24.7 67 23 67 C23 46.54 23 26.08 23 5 C15.41 5 7.82 5 0 5 C0 3.35 0 1.7 0 0 Z " fill="#AFA37F" transform="translate(466,135)"/>
<path d="M0 0 C4.26310589 0.05615507 6.30953546 0.12568045 10.0625 2.25 C12.47026689 6.70882757 12.46758339 10.41570147 11.75 15.375 C9.82278083 21.04958978 6.10898258 24.69550871 0.75 27.375 C-1.2472542 27.49699138 -3.24905981 27.55047512 -5.25 27.5625 C-6.3225 27.57667969 -7.395 27.59085938 -8.5 27.60546875 C-11.25 27.375 -11.25 27.375 -13.25 25.375 C-12.85852735 19.88040173 -11.33569662 14.75545167 -9.75 9.5 C-9.52441406 8.72914062 -9.29882812 7.95828125 -9.06640625 7.1640625 C-7.10389257 0.56815855 -6.85788955 0.19989364 0 0 Z " fill="#F8F8F7" transform="translate(209.25,62.625)"/>
<path d="M0 0 C1.65 0 3.3 0 5 0 C5 20.46 5 40.92 5 62 C17.21 62 29.42 62 42 62 C42 63.65 42 65.3 42 67 C28.14 67 14.28 67 0 67 C0 44.89 0 22.78 0 0 Z " fill="#ACA079" transform="translate(267,135)"/>
<path d="M0 0 C2.75 0.375 2.75 0.375 3.75 1.375 C3.34169753 7.88870035 1.95961522 13.44957865 -0.25 19.5625 C-2.00597673 24.49497238 -3.58330289 29.14976142 -4.25 34.375 C1.2275437 33.33165834 3.16967618 31.00172997 6.26513672 26.71044922 C8.6856599 22.90335866 10.34816993 18.87323741 12 14.6875 C12.33773438 13.85927734 12.67546875 13.03105469 13.0234375 12.17773438 C13.94391501 9.91459184 14.84986133 7.64629263 15.75 5.375 C16.15734375 4.35792969 16.5646875 3.34085938 16.984375 2.29296875 C17.23703125 1.66003906 17.4896875 1.02710938 17.75 0.375 C19.4 0.375 21.05 0.375 22.75 0.375 C20.91371775 8.39193957 18.57479768 16.08852656 15.8359375 23.83203125 C14.73787438 27.41456093 14.17743545 30.66581012 13.75 34.375 C17.32104439 32.49550295 19.29744301 31.20446843 20.75 27.375 C21.41 27.375 22.07 27.375 22.75 27.375 C21.56079495 31.73541851 20.47939349 34.68154915 16.75 37.375 C13.625 37.75 13.625 37.75 10.75 37.375 C8.39046906 35.01546906 8.25858587 33.59604383 7.75 30.375 C7.25371094 30.8803125 6.75742188 31.385625 6.24609375 31.90625 C0.66695906 37.24189304 0.66695906 37.24189304 -4.125 37.9375 C-7.25 37.375 -7.25 37.375 -9.25 35.375 C-10.00312923 27.60050972 -7.95098401 21.54401969 -5.25 14.3125 C-4.67765625 12.72791992 -4.67765625 12.72791992 -4.09375 11.11132812 C-3.15847443 8.52762936 -2.21042346 5.94943296 -1.25 3.375 C-5.16603304 6.16920492 -5.16603304 6.16920492 -7.25 10.375 C-7.91 10.375 -8.57 10.375 -9.25 10.375 C-8.95197895 6.89808771 -8.2382377 5.35987704 -6.0625 2.5625 C-3.25 0.375 -3.25 0.375 0 0 Z " fill="#2B2B28" transform="translate(245.25,55.625)"/>
<path d="M0 0 C1.65 0 3.3 0 5 0 C5 20.79 5 41.58 5 63 C17.21 63 29.42 63 42 63 C42 64.32 42 65.64 42 67 C28.14 67 14.28 67 0 67 C0 44.89 0 22.78 0 0 Z " fill="#A89B73" transform="translate(203,135)"/>
<path d="M0 0 C2 2 2 2 2.375 4.75 C1.88554795 8.9919178 0.78154882 10.7435526 -2 14 C-5.8021363 16.91544407 -9.86641861 19.33874419 -14 21.75 C-16.14023845 22.84593522 -16.14023845 22.84593522 -17 25 C-17.16669318 28.54171978 -17.16669318 28.54171978 -17 32 C-15.90076459 33.30746709 -15.90076459 33.30746709 -13.1875 33.3125 C-9.94854755 33.2813661 -9.94854755 33.2813661 -7.75 31.25 C-6.16854073 29.21669523 -5.01171454 27.36066727 -4 25 C-3.01 25 -2.02 25 -1 25 C-2.59609022 29.65526314 -4.76346158 33.32259619 -8.75 36.3125 C-12.22722734 37.37498613 -15.41092142 37.67662957 -19 37 C-21.94554858 34.86447728 -22.7746927 33.19373343 -23.4453125 29.640625 C-24.03002688 20.84448698 -20.66677233 13.52629531 -15.18359375 6.7578125 C-10.55508092 1.9393607 -6.91172621 -0.60101967 0 0 Z " fill="#2F2F2D" transform="translate(157,56)"/>
<path d="M0 0 C4.99183607 -0.43617985 8.73773073 -0.75736156 13.125 1.875 C15.77945935 6.29909892 15.87149744 9.96468147 15 15 C12.77428643 19.53386098 10.50590779 21.81033133 6 24 C2.66796875 24.29296875 2.66796875 24.29296875 -0.8125 24.1875 C-2.55466797 24.14689453 -2.55466797 24.14689453 -4.33203125 24.10546875 C-5.21246094 24.07066406 -6.09289062 24.03585938 -7 24 C-6.21369296 20.93609845 -5.4200032 17.8741556 -4.625 14.8125 C-4.40328125 13.94818359 -4.1815625 13.08386719 -3.953125 12.19335938 C-2.86298337 8.00913931 -1.75708508 3.96575744 0 0 Z " fill="#F7F7F6" transform="translate(211,36)"/>
<path d="M0 0 C0 0.99 0 1.98 0 3 C1.96185416 4.71140469 3.96302383 6.37873325 6 8 C8.00057421 12.00114842 7.63437852 16.66109034 7 21 C4.22456724 26.18763775 -0.35864804 29.61879753 -5.8125 31.6875 C-10.96458187 32.4235117 -15.95932216 32.26016946 -21 31 C-21 30.67 -21 30.34 -21 30 C-20.41992188 29.97421875 -19.83984375 29.9484375 -19.2421875 29.921875 C-12.78157106 29.45278734 -8.60131082 27.96011231 -4.1875 22.9375 C-2.18676247 19.67313877 -1.79472739 16.81545874 -1.6875 13.0625 C-1.65011719 12.20785156 -1.61273438 11.35320312 -1.57421875 10.47265625 C-2.15903486 7.07643058 -3.21800195 6.00394331 -6 4 C-9.2625342 3.3039772 -9.2625342 3.3039772 -12.75 3.25 C-14.50570312 3.16492187 -14.50570312 3.16492187 -16.296875 3.078125 C-17.18890625 3.05234375 -18.0809375 3.0265625 -19 3 C-18.67 2.01 -18.34 1.02 -18 0 C-15.93831015 -0.19620767 -13.87559002 -0.38160753 -11.8125 -0.5625 C-10.66394531 -0.66691406 -9.51539063 -0.77132812 -8.33203125 -0.87890625 C-5.31368801 -0.98859985 -2.91076064 -0.74002389 0 0 Z " fill="#2A2A29" transform="translate(222,60)"/>
<path d="M0 0 C1.32 0 2.64 0 4 0 C4 21.78 4 43.56 4 66 C2.68 66 1.36 66 0 66 C0 44.22 0 22.44 0 0 Z " fill="#A1946A" transform="translate(539,136)"/>
<path d="M0 0 C2.4375 1.25 2.4375 1.25 4 3 C4 4.32 4 5.64 4 7 C2.68 6.67 1.36 6.34 0 6 C0 5.01 0 4.02 0 3 C-3.41656024 2.83322718 -3.41656024 2.83322718 -7 3 C-7.66 3.66 -8.32 4.32 -9 5 C-8.70119842 9.53924099 -7.30890528 12.55159952 -4.9375 16.375 C-2.11641794 21.39707121 -0.93591155 24.29261651 -2 30 C-3.79104029 33.00474892 -5.81804554 35.40902277 -9 37 C-10.80843663 37.14716542 -12.62331566 37.2210887 -14.4375 37.25 C-15.40558594 37.27578125 -16.37367188 37.3015625 -17.37109375 37.328125 C-20 37 -20 37 -21.8359375 35.65234375 C-23.43002116 33.38960083 -23.21897316 31.70066902 -23 29 C-21.68 28.67 -20.36 28.34 -19 28 C-18.67 29.98 -18.34 31.96 -18 34 C-13.35359085 34.3427065 -13.35359085 34.3427065 -9 33 C-7.30457024 29.60914049 -8.0288104 26.50547727 -9 23 C-10.21896405 20.17839797 -11.52858588 17.44052247 -12.94140625 14.7109375 C-14.16896789 11.56729257 -14.35458088 9.34779606 -14 6 C-9.52760956 0.70374816 -6.89420728 -0.47546257 0 0 Z " fill="#232321" transform="translate(293,56)"/>
<path d="M0 0 C11.55 0 23.1 0 35 0 C35 0.66 35 1.32 35 2 C24.11 2 13.22 2 2 2 C2 9.92 2 17.84 2 26 C5.155625 25.7525 5.155625 25.7525 8.375 25.5 C14.45654916 25.07527643 20.52903259 24.86260041 26.625 24.8125 C27.38216309 24.79960937 28.13932617 24.78671875 28.91943359 24.7734375 C33.06360753 24.76601897 36.27556358 25.13778179 40 27 C40 27.33 40 27.66 40 28 C26.8 28 13.6 28 0 28 C0 18.76 0 9.52 0 0 Z " fill="#ECE8D8" transform="translate(335,170)"/>
<path d="M0 0 C2.75 0.375 2.75 0.375 3.75 1.375 C3.3494675 8.47729951 1.59035963 14.62508684 -0.75 21.3125 C-1.07097656 22.25673828 -1.39195312 23.20097656 -1.72265625 24.17382812 C-4.04923115 30.9734623 -4.04923115 30.9734623 -5.25 33.375 C-6.24 33.375 -7.23 33.375 -8.25 33.375 C-8.21184473 22.40536062 -5.20701785 13.47931164 -1.25 3.375 C-5.16603304 6.16920492 -5.16603304 6.16920492 -7.25 10.375 C-7.91 10.375 -8.57 10.375 -9.25 10.375 C-8.95197895 6.89808771 -8.2382377 5.35987704 -6.0625 2.5625 C-3.25 0.375 -3.25 0.375 0 0 Z " fill="#2A2A28" transform="translate(245.25,55.625)"/>
<path d="M0 0 C0.33 0 0.66 0 1 0 C1.33 2.97 1.66 5.94 2 9 C2.33 9 2.66 9 3 9 C3 27.48 3 45.96 3 65 C2.01 65 1.02 65 0 65 C0 43.55 0 22.1 0 0 Z " fill="#A19467" transform="translate(663,136)"/>
<path d="M0 0 C0.99 0 1.98 0 3 0 C3.0758691 7.51132765 3.12852324 15.02255704 3.16479492 22.53417969 C3.1799107 25.09118339 3.20040366 27.64816106 3.22631836 30.20507812 C3.26257862 33.87376317 3.27969836 37.5421064 3.29296875 41.2109375 C3.30845261 42.35992523 3.32393646 43.50891296 3.33988953 44.69271851 C3.34011612 45.7536673 3.34034271 46.81461609 3.34057617 47.90771484 C3.34723801 48.84481293 3.35389984 49.78191101 3.36076355 50.74740601 C3.24171158 51.49076202 3.12265961 52.23411804 3 53 C2.01 53.66 1.02 54.32 0 55 C0 36.85 0 18.7 0 0 Z " fill="#A49669" transform="translate(712,136)"/>
<path d="M0 0 C5.62978166 11.25956332 3.1168668 27.99167973 3.0625 40.375 C3.05747236 42.38281138 3.0529117 44.39062398 3.04882812 46.3984375 C3.03792865 51.26565586 3.02073451 56.13281401 3 61 C2.01 61 1.02 61 0 61 C0 40.87 0 20.74 0 0 Z " fill="#A29666" transform="translate(490,140)"/>
<path d="M0 0 C-0.64411202 5.66060798 -1.96721923 10.88631875 -3.6875 16.3125 C-3.91888672 17.12267578 -4.15027344 17.93285156 -4.38867188 18.76757812 C-5.10472249 21.01294834 -5.78895669 22.97705236 -7 25 C-10.20703125 26.54296875 -10.20703125 26.54296875 -13 27 C-11.89675623 20.8997109 -10.49872395 15.02824269 -8.5859375 9.12890625 C-7.86731897 6.88593693 -7.86731897 6.88593693 -8 4 C-8.99 3.67 -9.98 3.34 -11 3 C-11 2.34 -11 1.68 -11 1 C-3.375 0 -3.375 0 0 0 Z " fill="#292A28" transform="translate(320,33)"/>
<path d="M0 0 C0.515625 0.70125 1.03125 1.4025 1.5625 2.125 C6.96713441 8.49969699 11.86124567 11.89610432 20 14 C19.01 14.33 18.02 14.66 17 15 C17 15.99 17 16.98 17 18 C23.93 18.495 23.93 18.495 31 19 C31 19.33 31 19.66 31 20 C19.79943163 20.69281866 11.41360077 18.65588061 2.56640625 11.578125 C0.26073369 9.25520302 -0.51194393 7.20722561 -1 4 C-0.625 1.625 -0.625 1.625 0 0 Z " fill="#AEA27E" transform="translate(577,183)"/>
<path d="M0 0 C0.99 0.33 1.98 0.66 3 1 C3.04898438 2.16917969 3.09796875 3.33835938 3.1484375 4.54296875 C3.22350171 6.09116804 3.29904795 7.63934401 3.375 9.1875 C3.4059375 9.95642578 3.436875 10.72535156 3.46875 11.51757812 C3.68970845 15.80785468 4.28654892 19.02037168 6 23 C6.1953125 25.45703125 6.1953125 25.45703125 6.125 27.8125 C6.10695313 28.60269531 6.08890625 29.39289063 6.0703125 30.20703125 C6.03550781 31.09455078 6.03550781 31.09455078 6 32 C2.16525349 28.56195141 -0.64867076 25.0553877 -1.25512695 19.78125 C-1.33048926 17.28496801 -1.31112519 14.8090818 -1.25 12.3125 C-1.24484375 11.45849609 -1.2396875 10.60449219 -1.234375 9.72460938 C-1.18974281 6.17356036 -1.13210355 3.39631066 0 0 Z " fill="#A79A6F" transform="translate(571,158)"/>
<path d="M0 0 C-0.99 3.96 -1.98 7.92 -3 12 C1.85151961 10.05939216 2.32874967 9.8160719 5 6 C5.66 6 6.32 6 7 6 C5.68997074 9.93008778 4.33292638 12.47778544 1 15 C-2.5625 15.9375 -2.5625 15.9375 -6 16 C-7.73046875 14.78515625 -7.73046875 14.78515625 -9 13 C-9.109375 10.84375 -9.109375 10.84375 -8.75 8.5 C-8.64171875 7.7265625 -8.5334375 6.953125 -8.421875 6.15625 C-8 4 -8 4 -7 1 C-4.05697101 -0.96201933 -3.48011144 -1.16003715 0 0 Z " fill="#30302E" transform="translate(124,77)"/>
<path d="M0 0 C6.0546875 -0.1953125 6.0546875 -0.1953125 8 0 C8.66 0.66 9.32 1.32 10 2 C9.86441269 9.321715 6.98004854 15.40210656 4 22 C3.34 21.67 2.68 21.34 2 21 C1.01 21.33 0.02 21.66 -1 22 C1.70363951 12.71750433 1.70363951 12.71750433 3.1875 9.125 C4.23809164 6.75647117 4.23809164 6.75647117 4 3 C2.68 2.67 1.36 2.34 0 2 C0 1.34 0 0.68 0 0 Z " fill="#242522" transform="translate(119,56)"/>
<path d="M0 0 C12.21 0 24.42 0 37 0 C37 0.99 37 1.98 37 3 C24.46 3 11.92 3 -1 3 C-0.67 2.01 -0.34 1.02 0 0 Z " fill="#A3956C" transform="translate(337,136)"/>
<path d="M0 0 C0.5775 0.2475 1.155 0.495 1.75 0.75 C1.50424885 4.92776948 1.22543 7.18212527 -1.5 10.4375 C-2.4075 11.200625 -3.315 11.96375 -4.25 12.75 C-5.136875 13.513125 -6.02375 14.27625 -6.9375 15.0625 C-9.25 16.75 -9.25 16.75 -11.25 16.75 C-10.51435399 10.86483192 -7.86185056 5.81518353 -4.25 1.1875 C-2.25 -0.25 -2.25 -0.25 0 0 Z " fill="#EFEFEE" transform="translate(153.25,58.25)"/>
<path d="M0 0 C2 0 4 0 6 0 C4.22089072 6.75052102 2.29561809 13.40620337 0 20 C-1.65 20 -3.3 20 -5 20 C-4.35587386 17.22875964 -3.70977252 14.45800555 -3.0625 11.6875 C-2.88009766 10.90181641 -2.69769531 10.11613281 -2.50976562 9.30664062 C-2.33251953 8.54931641 -2.15527344 7.79199219 -1.97265625 7.01171875 C-1.81031494 6.31522217 -1.64797363 5.61872559 -1.48071289 4.90112305 C-1.06234435 3.2465594 -0.53968631 1.61905892 0 0 Z " fill="#21211E" transform="translate(302,73)"/>
<path d="M0 0 C2 2 2 2 2.3125 4.9375 C2 8 2 8 0.5 9.875 C0.005 10.24625 -0.49 10.6175 -1 11 C-2.96822886 9.03177114 -2.66248381 5.65191291 -3 3 C-6.12453165 3.33477125 -6.97709967 3.97440551 -9.125 6.375 C-10.44838987 8.22774581 -11.73703307 10.1055496 -13 12 C-16.125 13.1875 -16.125 13.1875 -19 14 C-17.43695295 8.26882747 -13.02606552 3.77490382 -7.96875 0.80859375 C-5.21164921 -0.32378693 -2.94567758 -0.25614588 0 0 Z " fill="#2D2E2B" transform="translate(157,56)"/>
<path d="M0 0 C1.12148438 0.00322266 2.24296875 0.00644531 3.3984375 0.00976562 C4.5740625 0.01814453 5.7496875 0.02652344 6.9609375 0.03515625 C8.14429687 0.03966797 9.32765625 0.04417969 10.546875 0.04882812 C13.47661257 0.06064158 16.40625022 0.07711367 19.3359375 0.09765625 C19.3359375 0.42765625 19.3359375 0.75765625 19.3359375 1.09765625 C11.7459375 1.42765625 4.1559375 1.75765625 -3.6640625 2.09765625 C-3.9940625 2.75765625 -4.3240625 3.41765625 -4.6640625 4.09765625 C-5.3240625 4.09765625 -5.9840625 4.09765625 -6.6640625 4.09765625 C-6.6640625 6.73765625 -6.6640625 9.37765625 -6.6640625 12.09765625 C-8.32020907 12.47984392 -9.98863274 12.81160727 -11.6640625 13.09765625 C-12.6640625 12.09765625 -12.6640625 12.09765625 -13.0390625 8.78515625 C-12.6640625 5.09765625 -12.6640625 5.09765625 -10.2890625 2.72265625 C-6.44007962 0.33995256 -4.52660844 -0.02286166 0 0 Z " fill="#444543" transform="translate(56.6640625,33.90234375)"/>
<path d="M0 0 C0.66 0.66 1.32 1.32 2 2 C1.9765625 4.6015625 1.9765625 4.6015625 1.625 7.625 C1.45871094 9.12933594 1.45871094 9.12933594 1.2890625 10.6640625 C1.14597656 11.82035156 1.14597656 11.82035156 1 13 C0.67 13 0.34 13 0 13 C-0.33 11.35 -0.66 9.7 -1 8 C-1.74443359 8.75796875 -1.74443359 8.75796875 -2.50390625 9.53125 C-8.08304094 14.86689304 -8.08304094 14.86689304 -12.875 15.5625 C-16 15 -16 15 -18 13 C-18.265625 10.94140625 -18.265625 10.94140625 -18.25 8.5625 C-18.25515625 7.78003906 -18.2603125 6.99757813 -18.265625 6.19140625 C-18 4 -18 4 -16 1 C-16.33 4.3 -16.66 7.6 -17 11 C-16.01 11 -15.02 11 -14 11 C-13.67 10.34 -13.34 9.68 -13 9 C-13 9.99 -13 10.98 -13 12 C-7.37281937 10.92815607 -5.32851999 8.34308367 -2.19921875 3.875 C-0.96509341 2.01783271 -0.96509341 2.01783271 0 0 Z " fill="#3B3C3A" transform="translate(254,78)"/>
<path d="M0 0 C-0.45098238 1.93922422 -0.91105559 3.87633594 -1.375 5.8125 C-1.63023438 6.89144531 -1.88546875 7.97039063 -2.1484375 9.08203125 C-3 12 -3 12 -5 15 C-5.66 14.01 -6.32 13.02 -7 12 C-7.99 12.99 -8.98 13.98 -10 15 C-9.01 11.37 -8.02 7.74 -7 4 C-8.65 4 -10.3 4 -12 4 C-11.67 3.01 -11.34 2.02 -11 1 C-3.375 0 -3.375 0 0 0 Z " fill="#2C2C2A" transform="translate(119,33)"/>
<path d="M0 0 C0.33 0 0.66 0 1 0 C1.66964286 7.76785714 1.66964286 7.76785714 -1.375 11.4375 C-4.93635322 14.91405909 -6.57499076 15.17250981 -11.4375 15.25 C-12.88962891 15.28867188 -12.88962891 15.28867188 -14.37109375 15.328125 C-17 15 -17 15 -18.8359375 13.65234375 C-20.43002116 11.38960083 -20.21897316 9.70066902 -20 7 C-18.68 6.67 -17.36 6.34 -16 6 C-15.67 7.98 -15.34 9.96 -15 12 C-10.16730887 12.38357449 -10.16730887 12.38357449 -5.8125 10.625 C-5.214375 10.08875 -4.61625 9.5525 -4 9 C-2.68163705 8.30419733 -1.35208914 7.62775567 0 7 C0 4.69 0 2.38 0 0 Z " fill="#414140" transform="translate(290,78)"/>
<path d="M0 0 C0.99 0.66 1.98 1.32 3 2 C2.47606294 7.86809507 1.23891142 12.54873741 -1 18 C-2.65 18 -4.3 18 -6 18 C-5.07923757 12.42126293 -4.29146679 7.72253931 -1 3 C-0.67 2.01 -0.34 1.02 0 0 Z " fill="#20201D" transform="translate(102,74)"/>
<path d="M0 0 C4.37487331 -0.08738991 8.74952078 -0.140524 13.125 -0.1875 C14.3625 -0.21263672 15.6 -0.23777344 16.875 -0.26367188 C18.07382813 -0.27333984 19.27265625 -0.28300781 20.5078125 -0.29296875 C21.60754395 -0.3086792 22.70727539 -0.32438965 23.84033203 -0.34057617 C27.44844115 0.04833684 29.86877242 1.21161112 33 3 C32.67 3.99 32.34 4.98 32 6 C31.01 6.33 30.02 6.66 29 7 C28.67 6.01 28.34 5.02 28 4 C24.88856433 2.96285478 22.50531904 2.79968139 19.23828125 2.68359375 C17.56088867 2.62075195 17.56088867 2.62075195 15.84960938 2.55664062 C14.68236328 2.51732422 13.51511719 2.47800781 12.3125 2.4375 C10.54422852 2.37272461 10.54422852 2.37272461 8.74023438 2.30664062 C5.82694117 2.20048824 2.91356243 2.09843758 0 2 C0 1.34 0 0.68 0 0 Z " fill="#2E2F2D" transform="translate(196,34)"/>
<path d="M0 0 C0 0.99 0 1.98 0 3 C-12.87 3 -25.74 3 -39 3 C-39 2.34 -39 1.68 -39 1 C-33.76726191 0.85724064 -28.53451442 0.71483282 -23.30175781 0.57275391 C-21.52083069 0.52434855 -19.73990619 0.47584634 -17.95898438 0.42724609 C-15.40235057 0.35749384 -12.84570758 0.28808744 -10.2890625 0.21875 C-9.49005524 0.19687622 -8.69104797 0.17500244 -7.86782837 0.15246582 C-2.22774341 0 -2.22774341 0 0 0 Z " fill="#A39569" transform="translate(375,198)"/>
<path d="M0 0 C0.90238747 2.70716242 1.11851302 4.23776768 1.09765625 7.01171875 C1.09443359 7.76904297 1.09121094 8.52636719 1.08789062 9.30664062 C1.07951172 10.09232422 1.07113281 10.87800781 1.0625 11.6875 C1.05798828 12.48478516 1.05347656 13.28207031 1.04882812 14.10351562 C1.0370585 16.06904257 1.01912348 18.03453085 1 20 C-0.65 19.67 -2.3 19.34 -4 19 C-4 13.39 -4 7.78 -4 2 C-3.34 1.67 -2.68 1.34 -2 1 C-1.34 1.33 -0.68 1.66 0 2 C0 1.34 0 0.68 0 0 Z " fill="#A5996E" transform="translate(114,159)"/>
<path d="M0 0 C2.475 0.495 2.475 0.495 5 1 C5 6.61 5 12.22 5 18 C3.68 18.33 2.36 18.66 1 19 C0.67 12.73 0.34 6.46 0 0 Z " fill="#A5966A" transform="translate(631,158)"/>
<path d="M0 0 C0.66 0.66 1.32 1.32 2 2 C1.67176873 6.34906427 0.80260764 10.0342632 -1 14 C-1.33 13.34 -1.66 12.68 -2 12 C-2.66 12 -3.32 12 -4 12 C-5.52106634 15.04213267 -5.37429338 18.28047572 -5.5625 21.625 C-5.60568359 22.33140625 -5.64886719 23.0378125 -5.69335938 23.765625 C-5.79944751 25.51018537 -5.90022889 27.25506697 -6 29 C-6.33 29 -6.66 29 -7 29 C-7.74336575 18.15236645 -7.15793866 10.43307501 -1 1 C-0.67 0.67 -0.34 0.34 0 0 Z " fill="#AEA47F" transform="translate(576,147)"/>
<path d="M0 0 C2.75 0.375 2.75 0.375 3.75 1.375 C3.79080783 3.37458364 3.79254356 5.37545254 3.75 7.375 C2.76 7.705 1.77 8.035 0.75 8.375 C0.09 9.035 -0.57 9.695 -1.25 10.375 C-2.29449911 7.24150268 -2.18423645 6.38531744 -1.25 3.375 C-5.16603304 6.16920492 -5.16603304 6.16920492 -7.25 10.375 C-7.91 10.375 -8.57 10.375 -9.25 10.375 C-8.95197895 6.89808771 -8.2382377 5.35987704 -6.0625 2.5625 C-3.25 0.375 -3.25 0.375 0 0 Z " fill="#272825" transform="translate(245.25,55.625)"/>
<path d="M0 0 C-0.875 6.75 -0.875 6.75 -2 9 C-2.66 9 -3.32 9 -4 9 C-4 8.34 -4 7.68 -4 7 C-4.99 7 -5.98 7 -7 7 C-7.33 6.01 -7.66 5.02 -8 4 C-8.99 3.67 -9.98 3.34 -11 3 C-11 2.34 -11 1.68 -11 1 C-3.375 0 -3.375 0 0 0 Z " fill="#363634" transform="translate(320,33)"/>
<path d="M0 0 C5.94 0 11.88 0 18 0 C18 0.99 18 1.98 18 3 C11.73 3 5.46 3 -1 3 C-0.67 2.01 -0.34 1.02 0 0 Z " fill="#A6986D" transform="translate(135,198)"/>
<path d="M0 0 C0.33 0 0.66 0 1 0 C1.33 1.98 1.66 3.96 2 6 C2.99 4.68 3.98 3.36 5 2 C5.20852314 8.40629424 5.1583195 13.92972642 3 20 C-0.05675241 15.41487138 -0.11219208 12.22893676 -0.0625 6.8125 C-0.05347656 5.54019531 -0.04445312 4.26789063 -0.03515625 2.95703125 C-0.02355469 1.98121094 -0.01195312 1.00539062 0 0 Z " fill="#AEA37D" transform="translate(35,162)"/>
<path d="M0 0 C0.66 0.33 1.32 0.66 2 1 C0.35 2.32 -1.3 3.64 -3 5 C-2.67 6.32 -2.34 7.64 -2 9 C-5.625 12 -5.625 12 -9 12 C-9.99 12.33 -10.98 12.66 -12 13 C-10.61536056 9.87250593 -9.00477577 7.7595015 -6.5625 5.375 C-5.96566406 4.78460938 -5.36882813 4.19421875 -4.75390625 3.5859375 C-3 2 -3 2 0 0 Z " fill="#ADA17A" transform="translate(52,138)"/>
<path d="M0 0 C2.02408755 0.09002398 4.04544287 0.24641038 6.0625 0.4375 C7.71958984 0.59025391 7.71958984 0.59025391 9.41015625 0.74609375 C10.26480469 0.82988281 11.11945313 0.91367188 12 1 C12 1.33 12 1.66 12 2 C9.36 2.33 6.72 2.66 4 3 C5.58272601 4.58272601 7.38034003 4.34735747 9.5625 4.5625 C10.38878906 4.64628906 11.21507813 4.73007813 12.06640625 4.81640625 C12.70449219 4.87699219 13.34257813 4.93757812 14 5 C14 5.33 14 5.66 14 6 C11.95863605 6.05451714 9.91684144 6.09302485 7.875 6.125 C6.16957031 6.15980469 6.16957031 6.15980469 4.4296875 6.1953125 C0.94242233 5.99672109 -1.7553862 5.2524801 -5 4 C-4.01 3.67 -3.02 3.34 -2 3 C-1.67 2.34 -1.34 1.68 -1 1 C-0.67 0.67 -0.34 0.34 0 0 Z " fill="#B6AD8D" transform="translate(61,197)"/>
<path d="M0 0 C0.556875 0.226875 1.11375 0.45375 1.6875 0.6875 C0.5899777 3.68074263 0.01067108 4.53360901 -2.9375 5.9375 C-4.113125 6.30875 -4.113125 6.30875 -5.3125 6.6875 C-5.6425 6.0275 -5.9725 5.3675 -6.3125 4.6875 C-6.828125 5.0175 -7.34375 5.3475 -7.875 5.6875 C-11.09276512 7.00760877 -13.8695528 6.81992105 -17.3125 6.6875 C-17.3125 6.3575 -17.3125 6.0275 -17.3125 5.6875 C-16.64863281 5.50574219 -15.98476562 5.32398438 -15.30078125 5.13671875 C-9.65911714 3.54301845 -9.65911714 3.54301845 -4.4375 0.9375 C-2.3125 -0.3125 -2.3125 -0.3125 0 0 Z " fill="#AEA37F" transform="translate(90.3125,191.3125)"/>
<path d="M0 0 C2.45933991 0.11369211 4.9167909 0.24042651 7.375 0.375 C8.07367187 0.4059375 8.77234375 0.436875 9.4921875 0.46875 C14.7734375 0.7734375 14.7734375 0.7734375 17 3 C11.41615387 4.86128204 5.68852856 4.13770571 0 3 C0 2.01 0 1.02 0 0 Z M15 0 C17 1 17 1 17 1 Z " fill="#A4956B" transform="translate(594,198)"/>
<path d="M0 0 C0.91007812 0.00902344 1.82015625 0.01804688 2.7578125 0.02734375 C3.45648438 0.03894531 4.15515625 0.05054688 4.875 0.0625 C4.875 1.0525 4.875 2.0425 4.875 3.0625 C2.23041621 4.38479189 0.19738699 4.15927194 -2.75 4.125 C-3.75289063 4.11597656 -4.75578125 4.10695312 -5.7890625 4.09765625 C-6.55992188 4.08605469 -7.33078125 4.07445312 -8.125 4.0625 C-7.795 3.0725 -7.465 2.0825 -7.125 1.0625 C-4.60024538 -0.19987731 -2.81299534 -0.03606404 0 0 Z " fill="#A69970" transform="translate(71.125,134.9375)"/>
<path d="M0 0 C2.4375 1.25 2.4375 1.25 4 3 C4 4.32 4 5.64 4 7 C2.68 6.67 1.36 6.34 0 6 C0 5.01 0 4.02 0 3 C-5.7974423 2.75571657 -5.7974423 2.75571657 -11 5 C-11.33 4.34 -11.66 3.68 -12 3 C-7.90914193 0.0248305 -5.02638169 -0.54833255 0 0 Z " fill="#383836" transform="translate(293,56)"/>
<path d="M0 0 C1.1875 1.5 1.1875 1.5 2 4 C1.27101296 6.78824238 0.1843275 9.37665092 -1 12 C-1.99 12 -2.98 12 -4 12 C-3.67 8.37 -3.34 4.74 -3 1 C-2.01 0.67 -1.02 0.34 0 0 Z " fill="#1E1E1C" transform="translate(241,77)"/>
<path d="M0 0 C3 0 3 0 6 1 C5.375 4.375 5.375 4.375 4 8 C0.875 9.4375 0.875 9.4375 -2 10 C-1.34 6.7 -0.68 3.4 0 0 Z " fill="#2B2B28" transform="translate(309,50)"/>
<path d="M0 0 C0.99 0.66 1.98 1.32 3 2 C3.4671306 6.20417542 2.78923164 9.19788277 1 13 C-0.32 12.34 -1.64 11.68 -3 11 C-2.53199289 6.94393835 -2.12046792 3.53411321 0 0 Z " fill="#21211F" transform="translate(111,44)"/>
<path d="M0 0 C-10.04072402 4.44108947 -18.8625026 5.64921092 -29.41796875 1.65625 C-29.94003906 1.4396875 -30.46210937 1.223125 -31 1 C-27.92749994 0.04485324 -27.00591313 -0.00170571 -23.75 0.9375 C-16.96407808 2.86017788 -12.1339731 2.47550402 -5.859375 -0.44140625 C-3.56789231 -1.12981386 -2.23790583 -0.74761898 0 0 Z " fill="#F4F0DC" transform="translate(619,194)"/>
<path d="M0 0 C-0.33 0.99 -0.66 1.98 -1 3 C-5.09725269 4.04167441 -8.61495224 3.94409525 -12.8125 3.5625 C-13.97394531 3.46066406 -15.13539063 3.35882813 -16.33203125 3.25390625 C-17.21246094 3.17011719 -18.09289062 3.08632813 -19 3 C-18.67 2.01 -18.34 1.02 -18 0 C-15.93831015 -0.19620767 -13.87559002 -0.38160753 -11.8125 -0.5625 C-10.66394531 -0.66691406 -9.51539063 -0.77132812 -8.33203125 -0.87890625 C-5.31368801 -0.98859985 -2.91076064 -0.74002389 0 0 Z " fill="#60615E" transform="translate(222,60)"/>
<path d="M0 0 C0.66 0 1.32 0 2 0 C0.81079495 4.36041851 -0.27060651 7.30654915 -4 10 C-7.25 10.25 -7.25 10.25 -10 10 C-9.42655063 7.13275314 -9.1385485 6.1385485 -7 4 C-7 4.99 -7 5.98 -7 7 C-3.42895561 5.12050295 -1.45255699 3.82946843 0 0 Z " fill="#333432" transform="translate(266,83)"/>
<path d="M0 0 C0.99 0 1.98 0 3 0 C2.6875 2.375 2.6875 2.375 2 5 C-1.79163027 7.52775351 -4.80874031 7.22443035 -9.1875 7.125 C-9.93708984 7.11597656 -10.68667969 7.10695313 -11.45898438 7.09765625 C-13.30612654 7.07412578 -15.15310412 7.03825561 -17 7 C-17 6.67 -17 6.34 -17 6 C-16.02417969 5.98582031 -15.04835938 5.97164062 -14.04296875 5.95703125 C-12.77066406 5.90933594 -11.49835938 5.86164062 -10.1875 5.8125 C-8.92292969 5.77769531 -7.65835938 5.74289063 -6.35546875 5.70703125 C-2.81922423 5.36373745 -2.81922423 5.36373745 -1.23828125 2.44921875 C-0.82964844 1.64097656 -0.42101562 0.83273438 0 0 Z " fill="#4A4A48" transform="translate(101,32)"/>
<path d="M0 0 C0.66 0.33 1.32 0.66 2 1 C1.67 6.94 1.34 12.88 1 19 C0.67 19 0.34 19 0 19 C0 14.71 0 10.42 0 6 C-1.32 6 -2.64 6 -4 6 C-3.67 4.35 -3.34 2.7 -3 1 C-2.01 0.67 -1.02 0.34 0 0 Z " fill="#B9B08E" transform="translate(114,155)"/>
<path d="M0 0 C4.95 0 9.9 0 15 0 C14.01 1.485 14.01 1.485 13 3 C10.46875 3.3984375 10.46875 3.3984375 7.5 3.375 C6.5203125 3.38273438 5.540625 3.39046875 4.53125 3.3984375 C3.6959375 3.26695312 2.860625 3.13546875 2 3 C1.34 2.01 0.68 1.02 0 0 Z " fill="#A3976C" transform="translate(422,136)"/>
<path d="M0 0 C0.66 0.33 1.32 0.66 2 1 C2.33 1.99 2.66 2.98 3 4 C0.36 5.98 -2.28 7.96 -5 10 C-5 9.34 -5 8.68 -5 8 C-5.66 7.67 -6.32 7.34 -7 7 C-4.69 4.69 -2.38 2.38 0 0 Z " fill="#A99A73" transform="translate(410,141)"/>
<path d="M0 0 C0.66 0 1.32 0 2 0 C1.67 4.29 1.34 8.58 1 13 C0.01 13.33 -0.98 13.66 -2 14 C-2.05410687 12.22950311 -2.09284119 10.45853151 -2.125 8.6875 C-2.14820313 7.70136719 -2.17140625 6.71523437 -2.1953125 5.69921875 C-2 3 -2 3 0 0 Z " fill="#A39569" transform="translate(38,159)"/>
<path d="M0 0 C2.875 0.3125 2.875 0.3125 6 1 C6.66 1.99 7.32 2.98 8 4 C6.02 4.99 6.02 4.99 4 6 C4 8.31 4 10.62 4 13 C3.67 13 3.34 13 3 13 C2.86722656 12.31292969 2.73445312 11.62585938 2.59765625 10.91796875 C2.42105469 10.01691406 2.24445313 9.11585937 2.0625 8.1875 C1.88847656 7.29417969 1.71445313 6.40085937 1.53515625 5.48046875 C1.02258847 2.88602829 1.02258847 2.88602829 0 0 Z " fill="#353533" transform="translate(218,63)"/>
<path d="M0 0 C0.33 0 0.66 0 1 0 C0.7444669 5.86448454 0.34242429 9.65757571 -4 14 C-4.05399736 12.54207116 -4.09279177 11.08357288 -4.125 9.625 C-4.15980469 8.40683594 -4.15980469 8.40683594 -4.1953125 7.1640625 C-4 5 -4 5 -2 3 C-1.34 2.01 -0.68 1.02 0 0 Z " fill="#1A1A18" transform="translate(259,78)"/>
<path d="M0 0 C-1.57344039 3.14688078 -4.27851951 4.79965407 -7 7 C-7 6.01 -7 5.02 -7 4 C-8.65 4 -10.3 4 -12 4 C-11.67 3.01 -11.34 2.02 -11 1 C-3.375 0 -3.375 0 0 0 Z " fill="#414140" transform="translate(119,33)"/>
<path d="M0 0 C2.475 0.99 2.475 0.99 5 2 C4.34 4.64 3.68 7.28 3 10 C2.34 8.68 1.68 7.36 1 6 C0.34 6 -0.32 6 -1 6 C-1.33 7.32 -1.66 8.64 -2 10 C-3 8 -3 8 -2.44140625 6.0546875 C-2.15136719 5.33539063 -1.86132812 4.61609375 -1.5625 3.875 C-1.27503906 3.15054688 -0.98757813 2.42609375 -0.69140625 1.6796875 C-0.46324219 1.12539062 -0.23507812 0.57109375 0 0 Z " fill="#333431" transform="translate(324,63)"/>
<path d="M0 0 C4.29 0.33 8.58 0.66 13 1 C12.67 1.99 12.34 2.98 12 4 C7.71 3.67 3.42 3.34 -1 3 C-0.67 2.01 -0.34 1.02 0 0 Z " fill="#A39569" transform="translate(421,198)"/>
<path d="M0 0 C0.625 1.875 0.625 1.875 1 4 C0.34 4.66 -0.32 5.32 -1 6 C-0.67 6.66 -0.34 7.32 0 8 C-3.3 8 -6.6 8 -10 8 C-10 7.34 -10 6.68 -10 6 C-8.3603125 5.62875 -8.3603125 5.62875 -6.6875 5.25 C-2.94091591 3.97997149 -1.89404734 3.34243648 0 0 Z " fill="#2B2C2A" transform="translate(189,84)"/>
<path d="M0 0 C1.66611905 -0.042721 3.33382885 -0.04063832 5 0 C6 1 6 1 6.0625 3.5625 C6.041875 4.366875 6.02125 5.17125 6 6 C4.68 6 3.36 6 2 6 C1.34 4.02 0.68 2.04 0 0 Z " fill="#A89B71" transform="translate(399,183)"/>
<path d="M0 0 C1.98 0.495 1.98 0.495 4 1 C3.67 3.31 3.34 5.62 3 8 C1.68 7.67 0.36 7.34 -1 7 C-0.67 4.69 -0.34 2.38 0 0 Z " fill="#1D1D1B" transform="translate(326,57)"/>
<path d="M0 0 C1.2065625 0.0309375 1.2065625 0.0309375 2.4375 0.0625 C1.7775 2.0425 1.1175 4.0225 0.4375 6.0625 C-0.5525 6.0625 -1.5425 6.0625 -2.5625 6.0625 C-3.2225 6.7225 -3.8825 7.3825 -4.5625 8.0625 C-3.54737544 0.08652135 -3.54737544 0.08652135 0 0 Z " fill="#32332E" transform="translate(265.5625,55.9375)"/>
<path d="M0 0 C1.258125 0.12375 2.51625 0.2475 3.8125 0.375 C4.87404297 0.47941406 4.87404297 0.47941406 5.95703125 0.5859375 C8 1 8 1 11 3 C8.03 3 5.06 3 2 3 C1.34 4.65 0.68 6.3 0 8 C-0.66 7.67 -1.32 7.34 -2 7 C-1.34 4.69 -0.68 2.38 0 0 Z " fill="#7CAACD" transform="translate(686,20)"/>
<path d="M0 0 C0.99 0 1.98 0 3 0 C3.33 2.31 3.66 4.62 4 7 C3.01 7.33 2.02 7.66 1 8 C-1 6 -1 6 -1.1875 3.4375 C-1 1 -1 1 0 0 Z " fill="#2C2D2C" transform="translate(271,84)"/>
<path d="M0 0 C0.66 0 1.32 0 2 0 C0.69386058 3.91841827 -0.83129848 6.32640809 -4 9 C-4.66 9 -5.32 9 -6 9 C-6 8.34 -6 7.68 -6 7 C-6.66 6.67 -7.32 6.34 -8 6 C-7.236875 5.7525 -6.47375 5.505 -5.6875 5.25 C-2.73819971 3.87823242 -1.82568981 2.6081283 0 0 Z " fill="#494948" transform="translate(129,83)"/>
<path d="M0 0 C0.99 0 1.98 0 3 0 C1.6062718 4.43458973 -0.60582235 6.87378374 -4 10 C-4.66 9.34 -5.32 8.68 -6 8 C-5.38125 7.4225 -4.7625 6.845 -4.125 6.25 C-2.18652947 4.19750179 -1.09985751 2.56633418 0 0 Z " fill="#4E4E4E" transform="translate(153,81)"/>
<path d="M0 0 C-0.99 0.495 -0.99 0.495 -2 1 C-2.65213292 3.02463255 -2.65213292 3.02463255 -3 5 C-3.33 4.34 -3.66 3.68 -4 3 C-6.64 3.33 -9.28 3.66 -12 4 C-8.41084094 -0.78554541 -5.58334594 -0.37222306 0 0 Z " fill="#313230" transform="translate(328,56)"/>
<path d="M0 0 C-1.4317521 5.01113235 -3.98445693 6.94469549 -8 10 C-8 6.45595664 -7.39010515 5.89732095 -5.125 3.3125 C-4.59132813 2.68988281 -4.05765625 2.06726563 -3.5078125 1.42578125 C-2 0 -2 0 0 0 Z " fill="#3C3D3B" transform="translate(332,83)"/>
<path d="M0 0 C0.66 0.66 1.32 1.32 2 2 C1.9765625 4.6015625 1.9765625 4.6015625 1.625 7.625 C1.51414063 8.62789062 1.40328125 9.63078125 1.2890625 10.6640625 C1.19367188 11.43492188 1.09828125 12.20578125 1 13 C0.67 13 0.34 13 0 13 C-0.12375 12.195625 -0.2475 11.39125 -0.375 10.5625 C-0.684375 9.2940625 -0.684375 9.2940625 -1 8 C-1.66 7.67 -2.32 7.34 -3 7 C-1.125 2.25 -1.125 2.25 0 0 Z " fill="#565654" transform="translate(254,78)"/>
<path d="M0 0 C0.33 0.99 0.66 1.98 1 3 C-1 6 -1 6 -4 7 C-4.66 7.66 -5.32 8.32 -6 9 C-5.45276317 5.62537285 -4.9451 3.91765 -3 1 C-2.01 1.33 -1.02 1.66 0 2 C0 1.34 0 0.68 0 0 Z " fill="#1D1D1B" transform="translate(309,67)"/>
<path d="M0 0 C0.33 0.99 0.66 1.98 1 3 C-0.4375 5.1875 -0.4375 5.1875 -2 7 C-2.33 6.67 -2.66 6.34 -3 6 C-3.66 6.66 -4.32 7.32 -5 8 C-5 6.02 -5 4.04 -5 2 C-3.35 1.34 -1.7 0.68 0 0 Z " fill="#242521" transform="translate(311,58)"/>
<path d="M0 0 C0.66 0.99 1.32 1.98 2 3 C-0.38179263 6.74281699 -2.74475735 9.97727468 -6 13 C-6.66 12.67 -7.32 12.34 -8 12 C-7.59007812 11.55269531 -7.18015625 11.10539063 -6.7578125 10.64453125 C-3.74359926 7.26255515 -1.33949455 4.420332 0 0 Z " fill="#B4A884" transform="translate(170,179)"/>
<path d="M0 0 C5.28 0.33 10.56 0.66 16 1 C16 1.33 16 1.66 16 2 C14.67935547 2.09087891 14.67935547 2.09087891 13.33203125 2.18359375 C11.58986328 2.30927734 11.58986328 2.30927734 9.8125 2.4375 C8.08966797 2.55931641 8.08966797 2.55931641 6.33203125 2.68359375 C3.48401829 2.95403812 0.78789518 3.37521747 -2 4 C-2 3.34 -2 2.68 -2 2 C-1.34 2 -0.68 2 0 2 C0 1.34 0 0.68 0 0 Z " fill="#F4F0DB" transform="translate(592,133)"/>
<path d="M0 0 C0.33 1.32 0.66 2.64 1 4 C1.33 4.99 1.66 5.98 2 7 C2.66 7.33 3.32 7.66 4 8 C3.67 8.66 3.34 9.32 3 10 C1.35 10 -0.3 10 -2 10 C-1.34 6.7 -0.68 3.4 0 0 Z " fill="#343532" transform="translate(98,82)"/>
<path d="M0 0 C1.32 0.33 2.64 0.66 4 1 C2.515 2.485 2.515 2.485 1 4 C4.63 4 8.26 4 12 4 C12 4.33 12 4.66 12 5 C7.38 5 2.76 5 -2 5 C-1.34 3.35 -0.68 1.7 0 0 Z " fill="#BBB292" transform="translate(62,135)"/>
<path d="M0 0 C1.65 0.33 3.3 0.66 5 1 C4.67 2.32 4.34 3.64 4 5 C2.35 5 0.7 5 -1 5 C-0.67 3.35 -0.34 1.7 0 0 Z " fill="#3C3C3A" transform="translate(298,88)"/>
<path d="M0 0 C0.103125 0.639375 0.20625 1.27875 0.3125 1.9375 C0.539375 2.618125 0.76625 3.29875 1 4 C1.99 4.33 2.98 4.66 4 5 C3.34 6.32 2.68 7.64 2 9 C2 8.01 2 7.02 2 6 C0.68 6.99 -0.64 7.98 -2 9 C-1.125 2.25 -1.125 2.25 0 0 Z " fill="#ACA17C" transform="translate(38,153)"/>
<path d="M0 0 C0.99 0.66 1.98 1.32 3 2 C1.63016497 5.16115776 1.0109362 5.9927092 -2 8 C-1.125 1.125 -1.125 1.125 0 0 Z " fill="#A99F7C" transform="translate(449,190)"/>
<path d="M0 0 C0.99 0.33 1.98 0.66 3 1 C0.03716687 3.38672669 -2.94270509 5.7353371 -6 8 C-6.66 7.34 -7.32 6.68 -8 6 C-7.01 6 -6.02 6 -5 6 C-4.731875 5.38125 -4.46375 4.7625 -4.1875 4.125 C-3 2 -3 2 0 0 Z " fill="#41413F" transform="translate(117,57)"/>
<path d="M0 0 C0.99 0.66 1.98 1.32 3 2 C1.7934375 2.8971875 1.7934375 2.8971875 0.5625 3.8125 C-2.22327984 5.80947276 -2.22327984 5.80947276 -3 9 C-3.66 9 -4.32 9 -5 9 C-4.5206753 4.68607774 -3.2542015 2.83430453 0 0 Z " fill="#383837" transform="translate(241,57)"/>
<path d="M0 0 C1.32 0.66 2.64 1.32 4 2 C4 3.32 4 4.64 4 6 C2.35 5.67 0.7 5.34 -1 5 C-0.67 3.35 -0.34 1.7 0 0 Z " fill="#B0A17D" transform="translate(153,136)"/>
<path d="M0 0 C1.45823212 -0.0270043 2.91660675 -0.04639787 4.375 -0.0625 C5.18710937 -0.07410156 5.99921875 -0.08570312 6.8359375 -0.09765625 C9 0 9 0 11 1 C11 1.66 11 2.32 11 3 C9.741875 2.87625 8.48375 2.7525 7.1875 2.625 C6.12595703 2.52058594 6.12595703 2.52058594 5.04296875 2.4140625 C3 2 3 2 0 0 Z " fill="#8CB3D1" transform="translate(700,96)"/>
<path d="M0 0 C3.3 0 6.6 0 10 0 C10 0.99 10 1.98 10 3 C6.6875 3.1875 6.6875 3.1875 3 3 C2.01 2.01 1.02 1.02 0 0 Z " fill="#A2946A" transform="translate(63,199)"/>
<path d="M0 0 C-0.99 0.66 -1.98 1.32 -3 2 C-3 2.66 -3 3.32 -3 4 C-2.34 4.33 -1.68 4.66 -1 5 C-4.68754757 4.50168276 -6.60490662 3.89932357 -9 1 C-2.25 -1.125 -2.25 -1.125 0 0 Z " fill="#B8AB88" transform="translate(443,196)"/>
<path d="M0 0 C3 0 3 0 6 1 C5.34 2.32 4.68 3.64 4 5 C2.68 4.67 1.36 4.34 0 4 C0 2.68 0 1.36 0 0 Z " fill="#383937" transform="translate(309,50)"/>
<path d="M0 0 C0.66 1.32 1.32 2.64 2 4 C1.01 4.33 0.02 4.66 -1 5 C-0.67 3.35 -0.34 1.7 0 0 Z M3 0 C3.99 0 4.98 0 6 0 C5.67 1.65 5.34 3.3 5 5 C4.67 4.34 4.34 3.68 4 3 C3.34 3 2.68 3 2 3 C2.33 2.01 2.66 1.02 3 0 Z " fill="#3D3D3B" transform="translate(302,73)"/>
<path d="M0 0 C2.475 0.495 2.475 0.495 5 1 C5 2.32 5 3.64 5 5 C3.68 4.67 2.36 4.34 1 4 C0.67 2.68 0.34 1.36 0 0 Z " fill="#2B2C2A" transform="translate(292,58)"/>
<path d="M0 0 C0.33 0 0.66 0 1 0 C1.25 3.25 1.25 3.25 1 7 C-0.32 8.32 -1.64 9.64 -3 11 C-2.01 7.37 -1.02 3.74 0 0 Z " fill="#D2E8F3" transform="translate(728,60)"/>
<path d="M0 0 C1.67542976 0.28604898 3.34385343 0.61781233 5 1 C4.01 1.495 4.01 1.495 3 2 C3 4.64 3 7.28 3 10 C2.67 10 2.34 10 2 10 C2 7.36 2 4.72 2 2 C1.01 1.67 0.02 1.34 -1 1 C-0.67 0.67 -0.34 0.34 0 0 Z " fill="#494948" transform="translate(47,36)"/>
</svg>
